<?xml version="1.0" standalone="no"?>
<!DOCTYPE svg PUBLIC "-//W3C//DTD SVG 20010904//EN"
 "http://www.w3.org/TR/2001/REC-SVG-20010904/DTD/svg10.dtd">
<svg version="1.0" xmlns="http://www.w3.org/2000/svg"
 width="959.000000pt" height="959.000000pt" viewBox="0 0 959.000000 959.000000"
 preserveAspectRatio="xMidYMid meet">
<metadata>
Created by potrace 1.11, written by Peter Selinger 2001-2013
</metadata>
<g transform="translate(0.000000,959.000000) scale(0.100000,-0.100000)"
fill="#000000" stroke="none">
<path d="M2795 9584 c-115 -16 -231 -40 -295 -61 -101 -32 -258 -110 -355
-175 -65 -44 -1336 -1031 -1576 -1225 -109 -88 -271 -262 -342 -369 -108 -162
-169 -309 -207 -492 -20 -100 -20 -114 -20 -3681 0 -3017 2 -3581 14 -3581 7
0 365 355 795 789 l781 789 0 1879 0 1879 138 12 c163 15 287 39 427 86 113
38 265 111 311 149 16 13 97 72 179 132 83 59 455 346 828 637 372 291 681
527 686 524 5 -3 233 -209 507 -457 536 -484 605 -543 759 -648 475 -323 1068
-492 1495 -426 175 27 342 86 492 175 39 24 430 330 867 680 598 478 820 661
891 736 184 192 316 430 386 693 35 130 45 427 20 566 -134 730 -800 1338
-1516 1383 -375 24 -650 -59 -990 -301 -58 -41 -433 -334 -834 -650 l-729
-576 -66 58 c-533 472 -1195 1046 -1263 1094 -266 189 -542 305 -858 362 -91
16 -452 29 -525 19z m-1010 -1119 c138 -18 342 -69 480 -120 249 -91 575 -277
781 -446 129 -106 1025 -951 1021 -964 -10 -30 -296 -221 -442 -295 -107 -55
-224 -97 -335 -121 -95 -20 -372 -24 -485 -6 -391 62 -749 277 -998 600 -124
160 -198 298 -257 476 -64 192 -75 262 -74 466 0 162 3 190 27 275 43 158 37
150 106 150 33 0 112 -7 176 -15z m5061 -40 c484 -83 906 -406 1139 -870 130
-260 184 -508 172 -794 -5 -123 -27 -240 -52 -281 -11 -18 -206 -12 -321 11
-282 54 -559 164 -805 320 -311 196 -446 305 -1027 828 l-381 343 87 64 c379
277 538 356 772 383 124 14 320 12 416 -4z"/>
<path d="M2000 3850 l0 -690 180 0 180 0 2 494 3 494 125 -491 125 -492 162
-3 162 -2 10 37 c6 21 64 245 128 498 l118 460 3 -497 2 -498 180 0 180 0 -2
688 -3 687 -282 3 -282 2 -10 -37 c-5 -21 -51 -200 -102 -398 -50 -198 -94
-364 -97 -369 -3 -5 -30 85 -59 200 -30 115 -77 298 -105 407 l-51 197 -283 0
-284 0 0 -690z"/>
<path d="M5080 3850 l0 -690 180 0 180 0 0 67 0 67 53 -51 c64 -63 115 -89
199 -102 132 -22 263 23 349 117 88 96 127 206 136 377 12 248 -73 422 -245
507 -62 31 -73 33 -172 33 -120 0 -173 -15 -246 -71 l-44 -34 0 235 0 235
-195 0 -195 0 0 -690z m634 15 c43 -29 68 -88 74 -180 9 -146 -41 -243 -132
-260 -73 -14 -153 42 -175 122 -14 49 -14 167 -1 215 13 46 54 96 95 114 38
18 103 12 139 -11z"/>
<path d="M6370 4405 l0 -135 195 0 195 0 0 135 0 135 -195 0 -195 0 0 -135z"/>
<path d="M4000 4400 l0 -120 125 0 125 0 0 120 0 120 -125 0 -125 0 0 -120z"/>
<path d="M4390 4400 l0 -120 130 0 130 0 0 120 0 120 -130 0 -130 0 0 -120z"/>
<path d="M4145 4161 c-244 -60 -395 -254 -395 -506 0 -150 45 -261 144 -361
110 -110 238 -157 431 -157 125 0 206 17 303 64 178 87 287 293 268 505 -22
241 -172 408 -411 459 -93 20 -252 18 -340 -4z m278 -284 c65 -49 95 -160 78
-284 -17 -116 -69 -181 -155 -190 -61 -7 -110 12 -150 58 -40 47 -56 103 -56
197 0 123 43 209 120 241 43 19 125 8 163 -22z"/>
<path d="M8535 4163 c-139 -29 -241 -107 -270 -207 -49 -165 37 -314 214 -365
36 -11 127 -31 201 -45 166 -32 214 -49 228 -81 30 -65 -52 -122 -161 -112
-70 6 -102 27 -135 85 -19 33 -28 41 -45 37 -12 -2 -78 -9 -147 -15 -210 -18
-213 -18 -205 -47 13 -52 47 -111 88 -152 90 -92 202 -123 437 -124 273 0 414
58 496 205 26 47 29 63 29 138 0 99 -15 138 -77 200 -71 71 -166 103 -402 135
-129 18 -180 39 -184 76 -5 46 27 72 97 77 79 6 131 -16 157 -64 16 -28 23
-34 44 -30 14 3 88 11 165 17 188 16 181 13 150 75 -55 111 -136 173 -262 199
-90 19 -325 18 -418 -2z"/>
<path d="M6370 3660 l0 -500 195 0 195 0 0 500 0 500 -195 0 -195 0 0 -500z"/>
<path d="M6990 3812 c0 -209 4 -372 11 -407 36 -194 187 -295 399 -265 96 13
167 48 236 115 l54 53 0 -74 0 -74 180 0 180 0 0 500 0 500 -194 0 -195 0 -3
-302 c-3 -284 -4 -305 -24 -338 -45 -77 -129 -101 -195 -57 -53 36 -57 65 -58
400 l-1 297 -195 0 -195 0 0 -348z"/>
<path d="M3558 2670 c-131 -23 -244 -78 -307 -148 -72 -79 -109 -206 -90 -310
27 -143 120 -237 309 -312 27 -11 118 -38 200 -60 83 -22 167 -48 189 -59 100
-52 101 -167 0 -226 -26 -15 -52 -20 -109 -20 -64 0 -82 4 -122 28 -54 31 -93
90 -104 155 l-7 42 -46 0 c-52 0 -364 -21 -369 -25 -9 -8 32 -155 58 -209 95
-193 254 -268 570 -269 195 -1 291 20 412 90 222 129 284 451 122 632 -88 98
-189 143 -483 217 -194 48 -225 65 -223 124 2 66 79 108 177 95 88 -11 146
-62 161 -144 l7 -33 66 6 c36 3 128 9 204 12 158 8 152 3 118 113 -47 152
-141 240 -307 286 -68 19 -349 29 -426 15z"/>
<path d="M6288 2281 c-65 -21 -105 -47 -170 -110 l-48 -45 0 77 0 77 -180 0
-180 0 0 -500 0 -500 194 0 195 0 3 298 c3 269 5 301 22 336 25 51 68 76 129
76 63 0 85 -13 108 -63 17 -38 19 -69 19 -344 l0 -303 195 0 195 0 0 355 c0
224 -4 373 -11 407 -24 111 -82 188 -174 229 -70 32 -217 37 -297 10z"/>
<path d="M7363 2289 c-201 -34 -362 -181 -402 -367 -14 -65 -14 -242 0 -301
16 -73 61 -151 119 -210 108 -110 232 -152 450 -154 78 0 160 5 195 12 134 29
247 105 315 211 33 52 66 137 56 147 -7 7 -280 42 -333 43 -24 0 -33 -5 -38
-22 -12 -39 -55 -87 -95 -108 -46 -23 -125 -26 -173 -6 -42 17 -91 74 -108
123 -17 50 -17 166 1 228 17 60 81 129 129 138 106 22 183 -5 221 -76 l23 -43
96 12 c256 35 261 36 261 50 0 31 -64 140 -113 191 -93 99 -233 144 -439 142
-62 -1 -136 -5 -165 -10z"/>
<path d="M4430 2275 c0 -3 93 -226 206 -496 163 -389 205 -496 199 -517 -11
-45 -52 -89 -100 -108 -40 -15 -57 -16 -133 -6 -48 6 -95 14 -105 18 -16 6
-18 3 -13 -27 3 -19 11 -79 17 -134 6 -55 14 -103 17 -107 4 -4 64 -12 134
-19 160 -15 264 -3 355 41 73 36 111 79 158 176 27 54 445 1165 445 1181 0 2
-86 2 -192 1 l-192 -3 -91 -317 c-49 -175 -92 -318 -95 -318 -3 0 -38 107 -78
238 -40 130 -84 274 -99 320 l-25 82 -204 0 c-112 0 -204 -2 -204 -5z"/>
</g>
</svg>
